<svg width="50" height="50" viewBox="0 0 50 50" fill="none" xmlns="http://www.w3.org/2000/svg">
<path d="M25.0016 0.00160194C11.1898 0.00160194 0 11.4829 0 25.633C0 36.9637 7.16295 46.5674 17.0901 49.9556C18.3449 50.1975 18.798 49.4045 18.798 48.7188C18.798 48.1101 18.784 46.5001 18.7746 44.3631C11.8164 45.9074 10.3506 40.9173 10.3506 40.9173C9.21151 37.9633 7.56766 37.1703 7.56766 37.1703C5.30502 35.586 7.74736 35.6196 7.74736 35.6196C10.2538 35.7942 11.5726 38.2548 11.5726 38.2548C13.8024 42.1764 17.423 41.0423 18.8559 40.3822C19.0746 38.7306 19.7262 37.5948 20.4357 36.9621C14.8853 36.3197 9.049 34.117 9.049 24.2953C9.049 21.4903 10.0178 19.2059 11.6195 17.4117C11.3429 16.7693 10.496 14.1581 11.8398 10.6274C11.8398 10.6274 13.9321 9.94337 18.7152 13.2562C20.7527 12.6881 22.8541 12.3967 24.9656 12.3896C27.0908 12.404 29.2143 12.6891 31.216 13.2562C35.971 9.94337 38.0618 10.6274 38.0618 10.6274C39.404 14.1581 38.5571 16.7677 38.3133 17.4117C39.8994 19.2059 40.8682 21.4919 40.8682 24.2953C40.8682 34.1394 35.0241 36.3101 29.4675 36.9364C30.3363 37.7038 31.1504 39.2817 31.1504 41.6766C31.1504 45.1048 31.1191 47.8666 31.1191 48.7012C31.1191 49.3676 31.5567 50.1686 32.8442 49.9107C42.8449 46.5578 50 36.946 50 25.6314C50 11.4813 38.8102 0 24.9984 0L25.0016 0.00160194Z" fill="#949494"/>
</svg>
