<svg width="50" height="35" viewBox="0 0 50 35" fill="none" xmlns="http://www.w3.org/2000/svg">
<path d="M50 2.917V32.0834C50 33.7386 48.6484 35 46.875 35H43.75V8.53007L25 21.1008L6.25 8.53007V35H3.125C1.35156 35 0 33.7386 0 32.0834V2.917C0 2.08868 0.334375 1.35952 0.895313 0.843275C1.18746 0.570463 1.53539 0.355259 1.91843 0.210457C2.30147 0.0656536 2.71179 -0.00579221 3.125 0.000366876H4.16719L25 14.0979L45.8328 0.000366876H46.875C47.7625 0.000366876 48.5438 0.312447 49.1047 0.843275C49.6656 1.35952 50 2.08868 50 2.917Z" fill="#949494"/>
</svg>
