<svg width="126" height="123" viewBox="0 0 126 123" fill="none" xmlns="http://www.w3.org/2000/svg">
<path d="M0 0V123H126V0H0ZM5.24869 5.25543H120.747V117.741H5.24869V5.25543ZM43.7023 69.6532L39.5404 85.4037C39.4577 85.8571 39.2923 85.936 38.7804 85.936H31.0708C30.5392 85.936 30.4566 85.7704 30.5392 85.1751L45.4466 32.8967C45.7144 31.9505 45.8758 31.1107 45.9585 28.5008C45.9585 28.1499 46.1436 27.9882 46.4113 27.9882H57.4048C57.7553 27.9882 57.9364 28.071 58.0191 28.5008L74.7337 85.2579C74.8361 85.6876 74.7337 85.936 74.3046 85.936H65.6499C65.1971 85.936 64.953 85.8335 64.8703 85.4826L60.5233 69.6493H43.6866L43.7023 69.6532ZM58.3459 61.1097C56.8693 55.2984 53.4043 42.5678 52.1128 36.4056H52.0104C50.904 42.5442 48.1123 52.9565 45.9624 61.1097H58.3459ZM81.9709 31.8914C81.9709 28.5047 84.3098 26.5098 87.3456 26.5098C90.5468 26.5098 92.7203 28.6861 92.7203 31.8914C92.7203 35.3608 90.4641 37.273 87.2432 37.273C84.105 37.273 81.9512 35.3648 81.9512 31.8914H81.9709ZM82.5654 43.8413C82.5654 43.4312 82.7308 43.2657 83.16 43.2657H91.4051C91.8776 43.2657 92.0391 43.4312 92.0391 43.8807V85.3801C92.0391 85.8098 91.9564 85.9754 91.4248 85.9754H83.3018C82.7702 85.9754 82.6048 85.727 82.6048 85.2973V43.8373L82.5654 43.8413Z" fill="#CB6A10"/>
</svg>
