<svg width="123" height="123" viewBox="0 0 123 123" fill="none" xmlns="http://www.w3.org/2000/svg">
<path d="M0 0V123H123V0H0ZM66.9384 95.9268C66.9384 107.897 59.9098 113.362 49.67 113.362C40.4187 113.362 35.0638 108.587 32.3183 102.793L41.7365 97.1085C43.5508 100.32 45.1981 103.039 49.178 103.039C52.9647 103.039 55.3808 101.554 55.3808 95.7643V56.4746H66.9384V95.9268ZM94.2795 113.362C83.5434 113.362 76.5982 108.258 73.2201 101.554L82.6384 96.1201C85.1116 100.157 88.3491 103.149 94.0335 103.149C98.8085 103.149 101.888 100.759 101.888 97.438C101.888 93.4844 98.7558 92.0831 93.458 89.7505L90.5763 88.5161C82.2299 84.9754 76.7125 80.4991 76.7125 71.0808C76.7125 62.4049 83.3281 55.8156 93.625 55.8156C100.983 55.8156 106.254 58.3679 110.045 65.067L101.04 70.8348C99.0633 67.2942 96.9196 65.8929 93.5986 65.8929C90.2249 65.8929 88.0812 68.0366 88.0812 70.8348C88.0812 74.2964 90.2249 75.6933 95.1932 77.8634L98.0749 79.0978C107.906 83.2974 113.424 87.6111 113.424 97.271C113.424 107.651 105.24 113.358 94.2839 113.358L94.2795 113.362Z" fill="#FFD233"/>
</svg>
