<svg width="50" height="51" viewBox="0 0 50 51" fill="none" xmlns="http://www.w3.org/2000/svg">
<path d="M42.5938 42.6109H35.1984V31.0063C35.1984 28.2391 35.1406 24.6828 31.3312 24.6828C27.475 24.6828 26.8875 27.6844 26.8875 30.8016V42.6094H19.4828V18.7484H26.5953V22.0031H26.6906C27.6844 20.1234 30.1016 18.1469 33.7078 18.1469C41.2094 18.1469 42.6016 23.0859 42.6016 29.5078V42.6094L42.5938 42.6109ZM11.1172 15.4875C10.552 15.4877 9.99231 15.3764 9.4702 15.16C8.94808 14.9435 8.4738 14.6262 8.07451 14.2262C7.67522 13.8262 7.35877 13.3513 7.14328 12.8288C6.9278 12.3063 6.81752 11.7464 6.81875 11.1813C6.81968 10.3305 7.07283 9.49922 7.54619 8.79238C8.01955 8.08555 8.69187 7.53493 9.47814 7.21017C10.2644 6.88541 11.1293 6.80107 11.9635 6.96783C12.7977 7.13459 13.5637 7.54495 14.1647 8.14704C14.7657 8.74912 15.1747 9.51589 15.3399 10.3504C15.5052 11.1849 15.4193 12.0496 15.0931 12.8353C14.7669 13.621 14.2151 14.2923 13.5074 14.7644C12.7997 15.2365 11.9679 15.4881 11.1172 15.4875ZM14.8266 42.6109H7.40625V18.75H14.8266V42.6109ZM46.3062 0H3.6875C1.65156 0 0 1.61094 0 3.60469V46.3969C0 48.3906 1.65156 50.0016 3.6875 50.0016H46.2984C48.3312 50.0016 50 48.3906 50 46.3969V3.60469C50 1.61094 48.3312 0 46.2984 0H46.3062Z" fill="#949494"/>
</svg>
