<svg width="126" height="142" viewBox="0 0 126 142" fill="none" xmlns="http://www.w3.org/2000/svg">
<path d="M63 142C61.0436 142 59.2175 141.478 57.522 140.565L40.1738 130.259C37.5652 128.824 38.8695 128.302 39.6521 128.041C43.1737 126.867 43.8259 126.606 47.4779 124.518C47.8697 124.257 48.3914 124.388 48.7822 124.649L62.087 132.607C62.6087 132.868 63.2609 132.868 63.6521 132.607L115.696 102.472C116.218 102.211 116.479 101.689 116.479 101.037V40.8968C116.479 40.2446 116.218 39.7228 115.696 39.4619L63.6521 9.45708C63.1304 9.19618 62.4783 9.19618 62.087 9.45708L10.0431 39.4624C9.52137 39.7233 9.26051 40.3755 9.26051 40.8973V101.037C9.26051 101.559 9.52137 102.211 10.0431 102.472L24.2609 110.69C31.9567 114.604 36.7822 110.038 36.7822 105.472V46.1148C36.7822 45.3321 37.4348 44.5494 38.3478 44.5494H45.0002C45.7828 44.5494 46.5654 45.2017 46.5654 46.1148V105.472C46.5654 115.778 40.9564 121.778 31.1737 121.778C28.1738 121.778 25.8261 121.778 19.1741 118.517L5.47805 110.69C2.08688 108.733 0 105.08 0 101.167V41.0278C0 37.1143 2.08688 33.4617 5.47805 31.5045L57.522 1.36972C60.7827 -0.456573 65.2173 -0.456573 68.478 1.36972L120.522 31.5045C123.913 33.4612 126 37.1138 126 41.0278V101.167C126 105.081 123.913 108.733 120.522 110.69L68.478 140.826C66.7825 141.609 64.826 142 63 142V142ZM79.0433 100.645C56.2172 100.645 51.5217 90.2091 51.5217 81.3381C51.5217 80.5554 52.1738 79.7727 53.0869 79.7727H59.8692C60.6518 79.7727 61.3044 80.2945 61.3044 81.0772C62.3479 87.991 65.3477 91.3832 79.1738 91.3832C90.1304 91.3832 94.8263 88.9047 94.8263 83.0344C94.8263 79.6423 93.522 77.1637 76.4348 75.4674C62.2174 74.0324 53.3477 70.9017 53.3477 59.5526C53.3477 48.9852 62.2169 42.7236 77.0869 42.7236C93.7824 42.7236 102 48.4634 103.043 60.987C103.043 61.3784 102.913 61.7697 102.652 62.1611C102.391 62.422 102 62.6829 101.609 62.6829H94.8263C94.1737 62.6829 93.522 62.1611 93.3911 61.5088C91.8259 54.3341 87.7826 51.986 77.0869 51.986C65.0874 51.986 63.6521 56.1604 63.6521 59.2912C63.6521 63.0747 65.3477 64.2483 81.5215 66.3354C97.5653 68.4226 105.13 71.4235 105.13 82.6426C105 94.1226 95.6089 100.645 79.0433 100.645V100.645Z" fill="#539E43"/>
</svg>
