<svg width="126" height="123" viewBox="0 0 126 123" fill="none" xmlns="http://www.w3.org/2000/svg">
<path d="M0 0V123H126V0H0ZM5.24869 5.25543H120.747V117.741H5.24869V5.25543ZM30.4526 28.8083C30.4526 28.4574 31.1929 28.1932 31.6221 28.1932C36.1319 28.0022 40.6454 27.9128 45.1592 27.9252C59.7201 27.9252 65.3783 35.9128 65.3783 46.1398C65.3783 59.509 55.6999 65.2375 43.8441 65.2375C41.8359 65.2375 41.1587 65.135 39.7648 65.135V85.3407C39.7648 85.7704 39.5994 85.9557 39.1702 85.9557H31.0472C30.618 85.9557 30.4526 85.7901 30.4526 85.3604V28.8083ZM39.7648 56.7374C40.9736 56.8202 41.9383 56.8202 44.0291 56.8202C50.1598 56.8202 55.944 54.6439 55.944 46.329C55.944 39.6543 51.8018 36.2676 44.7891 36.2676C42.7179 36.2676 40.7295 36.3504 39.7648 36.4332V56.7374ZM84.9634 50.4727C80.8014 50.4727 79.4076 52.5662 79.4076 54.293C79.4076 56.2012 80.3526 57.4983 85.9084 60.3724C94.1338 64.3781 96.7365 68.1748 96.7365 73.8205C96.7365 82.2182 90.3184 86.7363 81.6637 86.7363C77.0687 86.7363 73.1548 85.7704 70.8986 84.4772C70.5718 84.3117 70.4891 84.0475 70.4891 83.6138V75.8943C70.4891 75.3818 70.7372 75.1965 71.0837 75.4645C74.2262 77.5104 77.8958 78.5955 81.6441 78.5871C85.806 78.5871 87.5306 76.8602 87.5306 74.5026C87.5306 72.5944 86.3218 70.9503 81.0495 68.1787C73.584 64.6067 70.4655 60.9717 70.4655 54.8923C70.4655 48.115 75.7575 42.489 84.924 42.489C89.4364 42.489 92.6139 43.1868 94.3583 43.9477C94.7874 44.2158 94.8701 44.6456 94.8701 44.9964V52.2034C94.8701 52.6332 94.6024 52.9013 94.0905 52.716C91.7516 51.34 88.3063 50.4569 84.9437 50.4569L84.9634 50.4727Z" fill="#20D5EC"/>
</svg>
